<svg width="122" height="128" viewBox="0 0 122 128" fill="none" xmlns="http://www.w3.org/2000/svg">
<g filter="url(#filter0_d_14_218)">
<path d="M65.5 20C72.5755 20 78.0943 22.2191 82.0566 26.6573C86.0189 31.0393 88 37.3034 88 45.4494V80H74.2453V45.8708C74.2453 41.1517 73.1132 37.6124 70.8491 35.2528C68.6415 32.8371 65.5566 31.6292 61.5943 31.6292C57.4057 31.6292 54.0377 32.9213 51.4906 35.5056C49 38.0337 47.7547 41.7978 47.7547 46.7978V80H34V21.0112H47.3302V28.1742C49.3679 25.4775 51.9151 23.4551 54.9717 22.1067C58.0283 20.7022 61.5377 20 65.5 20Z" fill="url(#paint0_linear_14_218)"/>
</g>
<defs>
<filter id="filter0_d_14_218" x="0" y="0" width="122" height="128" filterUnits="userSpaceOnUse" color-interpolation-filters="sRGB">
<feFlood flood-opacity="0" result="BackgroundImageFix"/>
<feColorMatrix in="SourceAlpha" type="matrix" values="0 0 0 0 0 0 0 0 0 0 0 0 0 0 0 0 0 0 127 0" result="hardAlpha"/>
<feOffset dy="14"/>
<feGaussianBlur stdDeviation="17"/>
<feComposite in2="hardAlpha" operator="out"/>
<feColorMatrix type="matrix" values="0 0 0 0 0.54902 0 0 0 0 0.976471 0 0 0 0 0.67451 0 0 0 0.4 0"/>
<feBlend mode="normal" in2="BackgroundImageFix" result="effect1_dropShadow_14_218"/>
<feBlend mode="normal" in="SourceGraphic" in2="effect1_dropShadow_14_218" result="shape"/>
</filter>
<linearGradient id="paint0_linear_14_218" x1="46.7225" y1="20" x2="92.9395" y2="31.5801" gradientUnits="userSpaceOnUse">
<stop stop-color="#E2F685"/>
<stop offset="1" stop-color="#8AF9AD"/>
</linearGradient>
</defs>
</svg>
