<svg width="278" height="278" viewBox="0 0 278 278" fill="none" xmlns="http://www.w3.org/2000/svg">
<mask id="mask0_14_481" style="mask-type:alpha" maskUnits="userSpaceOnUse" x="0" y="0" width="278" height="278">
<circle cx="139" cy="139" r="139" fill="#05030E"/>
</mask>
<g mask="url(#mask0_14_481)">
<g filter="url(#filter0_d_14_481)">
<rect x="-45.1963" y="-37.5215" width="297.613" height="340.252" rx="10" fill="url(#paint0_linear_14_481)"/>
</g>
<path d="M23.0245 -63.1044L149.233 -87.8345V116.828L123.65 108.3L23.0245 -63.1044Z" fill="#75CF92"/>
<path d="M137.294 -19.6687C137.294 -29.0576 144.906 -36.6687 154.294 -36.6687H359.92C369.309 -36.6687 376.92 -29.0575 376.92 -19.6687V271.299C376.92 280.321 369.872 287.772 360.863 288.272L82.6957 303.726C69.9217 304.436 60.971 291.313 66.294 279.679L135.753 127.872C136.769 125.652 137.294 123.24 137.294 120.799V-19.6687Z" fill="url(#paint1_linear_14_481)"/>
</g>
<defs>
<filter id="filter0_d_14_481" x="-89.1963" y="-67.5215" width="385.613" height="428.251" filterUnits="userSpaceOnUse" color-interpolation-filters="sRGB">
<feFlood flood-opacity="0" result="BackgroundImageFix"/>
<feColorMatrix in="SourceAlpha" type="matrix" values="0 0 0 0 0 0 0 0 0 0 0 0 0 0 0 0 0 0 127 0" result="hardAlpha"/>
<feOffset dy="14"/>
<feGaussianBlur stdDeviation="22"/>
<feComposite in2="hardAlpha" operator="out"/>
<feColorMatrix type="matrix" values="0 0 0 0 0.862745 0 0 0 0 0.596078 0 0 0 0 0.223529 0 0 0 0.6 0"/>
<feBlend mode="normal" in2="BackgroundImageFix" result="effect1_dropShadow_14_481"/>
<feBlend mode="normal" in="SourceGraphic" in2="effect1_dropShadow_14_481" result="shape"/>
</filter>
<linearGradient id="paint0_linear_14_481" x1="-91.3777" y1="-84.4527" x2="270.546" y2="284.014" gradientUnits="userSpaceOnUse">
<stop stop-color="#BBC423"/>
<stop offset="1" stop-color="#E99A3D"/>
</linearGradient>
<linearGradient id="paint1_linear_14_481" x1="61" y1="241" x2="67.9654" y2="75.2572" gradientUnits="userSpaceOnUse">
<stop stop-color="#E2F685"/>
<stop offset="1" stop-color="#8AF9AD"/>
</linearGradient>
</defs>
</svg>
